<svg viewBox="0 0 111 53" fill="none" xmlns="http://www.w3.org/2000/svg">
  <path d="M55.5452 14.7402L55.5909 14.7959C73.85 5.13574 91.52 7.90295 93.3957 25.9204C94.4593 26.7055 95.38 27.407 96.2949 27.9805C99.909 17.4963 82.0217 -5.56562 55.5452 14.7458V14.7402Z" fill="white"/>
  <path d="M7.99986 28.6377C8.65748 46.8667 35.0196 50.1963 46.6853 31.6443C47.0798 31.0152 47.463 30.3637 47.8175 29.6844C47.8061 29.6677 47.7947 29.6566 47.7775 29.6399C37.7931 43.9548 14.9078 46.5884 11.5911 29.6121C11.5853 29.6121 11.5739 29.6121 11.5682 29.6121C9.37229 29.0441 7.99414 28.6433 7.99414 28.6433L7.99986 28.6377Z" fill="white"/>
  <path d="M55.1717 11.6003C54.7714 12.1014 54.3769 12.6192 53.9937 13.1593C23.44 -11.6287 3.44823 11.8007 1.80703 17.7193L10.9566 22.4519C12.9923 20.4698 25.7388 3.05922 47.7949 29.6122C47.8064 29.6289 47.8178 29.64 47.8292 29.6567C47.469 30.336 47.0915 30.9874 46.697 31.6166C35.0427 50.1463 8.71494 46.8167 8.05731 28.6155C8.05731 28.6155 9.42975 29.0108 11.6256 29.5788C11.6314 29.5788 11.6428 29.5788 11.6485 29.5788C17.8645 31.1934 30.6167 34.1889 37.3987 33.5486C24.1777 30.7313 12.1689 25.4085 0.949264 19.7014C0.417447 21.6892 0.125806 23.6101 0.0343108 25.4641C-0.0114369 26.3383 -0.0114369 27.1957 0.0343108 28.0365C1.25234 50.9703 34.6139 61.2151 50.4368 35.3916C50.597 35.1299 50.7514 34.8571 50.9115 34.5898C50.9915 34.4562 51.0716 34.3225 51.1517 34.1833C68.3242 57.1729 88.722 56.6662 101.966 45.6141L91.6727 35.4918C74.3572 41.5997 64.4414 24.8461 56.081 15.3474L55.5892 14.7739L55.5434 14.7182C81.9856 -5.56533 99.8501 17.4687 96.2417 27.9418C95.3268 27.3683 94.4061 26.6668 93.3482 25.8873C89.2995 22.9029 83.2036 18.7438 67.6551 16.1826L69.1934 16.9843C91.3124 27.1456 95.567 34.033 103.893 43.2533C106.14 40.23 107.759 37.2735 108.828 34.4061C119.533 5.73178 75.2378 -13.4494 55.1717 11.6003Z" fill="white"/>
</svg>
